<?xml version="1.0" standalone="no"?>
<!DOCTYPE svg PUBLIC "-//W3C//DTD SVG 20010904//EN"
 "http://www.w3.org/TR/2001/REC-SVG-20010904/DTD/svg10.dtd">
<svg version="1.0" xmlns="http://www.w3.org/2000/svg"
 width="1024.000000pt" height="1024.000000pt" viewBox="0 0 1024.000000 1024.000000"
 preserveAspectRatio="xMidYMid meet">

<g transform="translate(0.000000,1024.000000) scale(0.100000,-0.100000)"
fill="#000000" stroke="none">
<path d="M4220 8182 c-141 -64 -214 -105 -343 -196 -499 -349 -878 -880 -1027
-1441 -60 -226 -62 -230 -92 -233 -23 -3 -30 2 -39 25 -23 57 -38 78 -71 95
-97 52 -198 -17 -198 -136 0 -50 -8 -56 -76 -56 -39 0 -44 -2 -36 -17 21 -39
24 -102 8 -157 -9 -30 -21 -58 -28 -62 -7 -4 -8 -3 -4 4 5 8 1 10 -10 5 -11
-4 -13 -8 -6 -11 17 -5 15 -19 -4 -26 -8 -3 -12 -2 -9 3 3 5 1 12 -5 16 -6 4
-10 -5 -10 -19 0 -31 11 -33 35 -6 14 16 31 20 82 20 l63 0 0 -52 c1 -112 62
-176 158 -165 37 4 53 13 84 46 72 75 96 54 109 -96 41 -482 183 -885 444
-1258 222 -316 473 -529 851 -721 171 -87 421 -177 587 -211 l87 -18 0 -147 0
-148 -257 0 c-281 0 -338 -8 -417 -54 -81 -47 -133 -140 -143 -255 l-6 -68
694 -6 c382 -4 921 -5 1199 -2 278 3 516 6 529 5 23 0 24 2 19 68 -7 90 -39
161 -99 217 -94 88 -103 90 -437 93 l-293 3 3 146 3 146 140 33 c347 81 630
213 901 419 217 166 366 325 514 548 234 352 386 793 416 1207 11 151 43 187
103 111 38 -47 78 -65 132 -58 73 10 119 72 119 162 l0 55 63 0 c37 0 68 -5
76 -12 7 -7 2 4 -12 25 -41 61 -46 151 -13 228 6 14 -1 16 -51 15 l-58 -1 -6
56 c-10 96 -55 145 -133 147 -60 2 -94 -22 -122 -84 -19 -44 -28 -54 -48 -54
-13 0 -29 6 -35 14 -7 8 -32 91 -56 185 -69 265 -154 464 -293 687 -211 337
-512 641 -834 840 -106 66 -344 184 -370 184 -17 0 -18 -48 -18 -872 l0 -873
23 27 c12 15 35 32 50 38 68 24 159 0 184 -50 11 -22 13 -15 13 60 1 103 21
157 72 188 71 44 159 18 199 -58 14 -26 19 -56 19 -122 l0 -88 33 37 c30 32
41 37 90 41 50 4 63 1 97 -22 22 -14 41 -32 42 -39 1 -6 4 72 7 175 l6 188 33
32 c29 30 38 33 91 33 50 0 64 -4 86 -25 56 -53 55 -35 55 -616 0 -295 -2
-539 -5 -542 -3 -3 -5 9 -5 27 0 28 -3 31 -20 26 -20 -6 -24 3 -23 43 1 7 -2
10 -5 7 -4 -4 -7 -17 -7 -28 0 -16 -7 -23 -25 -24 -22 -2 -23 -2 -5 6 19 8 19
9 2 16 -10 4 -31 5 -47 1 -25 -4 -30 -2 -30 13 0 10 -7 21 -15 25 -18 7 -20
-10 -2 -17 9 -4 9 -8 -3 -16 -8 -5 -18 -7 -23 -4 -4 2 -16 -4 -26 -16 -17 -20
-18 -16 -24 122 -4 78 -7 201 -7 272 -1 124 -1 129 -17 104 -24 -40 -65 -59
-124 -59 -48 0 -55 3 -90 39 l-37 40 -8 -102 c-4 -56 -9 -94 -11 -85 -3 10
-16 18 -31 20 -17 2 -27 9 -26 18 1 9 -7 16 -17 16 -11 0 -19 -6 -19 -13 0 -7
5 -13 11 -13 5 0 7 -5 4 -10 -4 -7 -13 -4 -23 7 -18 20 -52 19 -64 -1 -5 -8
-16 -7 -40 2 -21 8 -34 9 -36 2 -2 -5 -8 -10 -13 -10 -5 0 -9 30 -10 68 0 37
-4 76 -9 87 -7 19 -8 19 -15 2 -4 -10 -13 -16 -20 -13 -7 2 -12 -3 -11 -12 2
-23 -42 -42 -97 -42 -43 0 -54 5 -84 35 -21 21 -32 39 -27 47 5 9 4 10 -4 3
-7 -7 -12 -153 -14 -460 l-3 -450 -33 -95 c-86 -256 -285 -458 -530 -537 -102
-34 -291 -43 -402 -20 -319 66 -554 294 -630 609 -16 68 -20 118 -20 283 0
110 -3 305 -7 432 -5 199 -8 230 -20 214 -23 -34 -78 -61 -122 -61 -50 0 -78
12 -108 48 -19 22 -23 24 -24 10 -1 -10 -3 -22 -4 -28 -1 -5 -3 -36 -4 -68 -1
-52 -3 -58 -21 -57 -11 1 -23 4 -26 8 -4 3 -14 2 -24 -3 -10 -5 -20 -7 -23 -3
-8 7 -68 -17 -63 -26 3 -4 -4 -7 -14 -7 -10 0 -16 4 -14 8 12 18 -14 6 -36
-17 -13 -14 -27 -25 -30 -25 -11 0 -30 108 -30 173 l0 60 -20 -25 c-10 -14
-39 -33 -64 -42 -39 -15 -52 -16 -83 -6 -42 14 -81 45 -93 75 -6 13 -9 -18 -9
-81 -1 -145 -13 -347 -20 -336 -7 10 -38 24 -67 29 -14 2 -23 -5 -31 -24 -9
-23 -11 -24 -12 -8 -1 13 -8 21 -20 22 -16 1 -18 -4 -15 -30 4 -24 2 -28 -5
-17 -9 13 -12 12 -25 -5 -14 -18 -16 -19 -31 -4 -9 9 -17 30 -17 48 -1 17 -3
29 -6 26 -3 -3 -5 -23 -4 -45 2 -22 -2 -40 -7 -40 -11 0 -16 187 -16 650 0
360 1 365 64 407 64 43 147 24 192 -43 17 -26 19 -49 19 -203 l0 -174 25 27
c31 34 64 46 127 46 44 0 54 -4 84 -34 l34 -34 0 65 c0 96 17 149 56 179 48
37 102 42 153 13 59 -33 81 -84 81 -184 0 -76 1 -79 16 -56 45 63 168 68 232
9 l22 -21 0 871 c0 691 -3 872 -12 872 -7 -1 -60 -22 -118 -48z m3215 -1851
c65 -37 97 -133 76 -231 -5 -25 -9 -37 -10 -27 -1 9 -6 17 -12 17 -5 0 -8 -4
-4 -9 3 -6 -7 -6 -27 0 -25 7 -41 4 -75 -12 -42 -20 -83 -19 -83 3 0 7 -5 6
-14 -1 -11 -9 -15 -9 -19 1 -4 10 -8 10 -16 -2 -9 -12 -11 -13 -11 -1 0 8 -3
11 -7 8 -3 -4 -12 -2 -20 4 -10 9 -13 8 -13 -2 0 -8 -8 -4 -20 9 -12 12 -27
22 -36 22 -8 0 -17 7 -20 15 -4 8 -10 13 -14 10 -14 -9 21 57 56 106 76 105
180 140 269 90z m-4370 0 c46 -22 84 -54 109 -93 15 -23 15 -26 2 -24 -9 1
-19 5 -22 9 -12 12 -34 8 -34 -7 0 -16 -34 -29 -67 -26 -16 1 -23 -4 -24 -17
-1 -13 -3 -11 -9 7 -5 17 -8 19 -9 8 -1 -10 -7 -18 -15 -18 -8 0 -21 -3 -30
-6 -11 -4 -16 0 -17 12 -1 17 -2 17 -6 2 -2 -10 -9 -18 -14 -18 -6 0 -7 4 -4
10 3 6 -1 7 -10 4 -9 -4 -14 -13 -11 -20 9 -22 -11 -16 -45 14 -27 25 -30 31
-24 65 19 99 128 146 230 98z m3345 -191 c0 -5 -4 -10 -10 -10 -5 0 -10 5 -10
10 0 6 5 10 10 10 6 0 10 -4 10 -10z m-2440 -20 c0 -5 -4 -10 -10 -10 -5 0
-10 5 -10 10 0 6 5 10 10 10 6 0 10 -4 10 -10z m-505 -230 c3 -5 -1 -10 -10
-10 -9 0 -13 5 -10 10 3 6 8 10 10 10 2 0 7 -4 10 -10z m-1 -32 c-3 -4 -11 -5
-19 -1 -21 7 -19 12 4 10 11 0 18 -5 15 -9z m514 -67 c85 -44 101 -88 102
-287 0 -115 5 -169 19 -227 46 -179 127 -319 269 -468 147 -154 289 -239 510
-306 72 -21 114 -26 240 -31 170 -5 259 5 392 45 321 96 594 366 706 700 22
66 28 107 36 258 11 211 18 242 60 284 62 60 140 65 202 10 63 -55 70 -83 62
-253 -10 -220 -45 -361 -137 -553 -96 -200 -290 -426 -477 -552 -345 -233
-776 -302 -1182 -187 -157 44 -244 85 -405 191 -326 215 -551 564 -605 940
-13 95 -13 294 2 336 35 104 119 145 206 100z m2962 -11 c0 -5 -4 -10 -10 -10
-5 0 -10 5 -10 10 0 6 5 10 10 10 6 0 10 -4 10 -10z m-3185 -1412 c163 -150
281 -231 496 -339 355 -178 769 -257 1121 -215 168 21 299 52 483 113 273 92
535 253 763 468 72 67 91 76 112 50 18 -21 -2 -48 -107 -142 -280 -250 -567
-404 -924 -497 -198 -51 -319 -66 -530 -66 -208 0 -310 13 -509 63 -378 96
-707 278 -1007 558 -57 52 -62 63 -37 90 21 24 28 20 139 -83z"/>
<path d="M3155 6230 c3 -5 8 -10 11 -10 2 0 4 5 4 10 0 6 -5 10 -11 10 -5 0
-7 -4 -4 -10z"/>
<path d="M4542 7695 c0 -16 2 -22 5 -12 2 9 2 23 0 30 -3 6 -5 -1 -5 -18z"/>
<path d="M4562 7662 c-8 -6 -2 -9 18 -9 20 0 26 3 18 9 -7 4 -15 8 -18 8 -3 0
-11 -4 -18 -8z"/>
<path d="M4544 7615 c2 -16 5 -37 7 -45 2 -8 -1 -14 -7 -13 -17 3 -24 -326
-24 -1197 0 -750 1 -797 19 -835 28 -61 53 -78 119 -82 72 -5 105 14 155 90
20 30 59 72 87 92 86 63 80 17 80 591 0 281 -3 566 -7 633 -6 111 -8 122 -24
118 -10 -3 -26 1 -36 9 -10 7 -31 14 -47 14 -18 0 -35 9 -48 25 -11 14 -25 25
-31 25 -7 -1 -6 -6 4 -13 22 -17 32 -48 13 -40 -7 3 -14 10 -14 15 0 6 -6 8
-13 5 -8 -3 -20 -1 -28 5 -11 8 -10 9 4 4 9 -3 17 -1 17 4 0 6 -7 10 -15 10
-8 0 -15 7 -15 16 0 9 5 12 13 8 7 -5 6 0 -3 11 -10 12 -15 43 -16 89 -1 39
-3 128 -5 199 -1 70 -6 127 -11 127 -5 0 -6 5 -3 10 3 6 2 10 -4 10 -5 0 -11
-5 -13 -12 -3 -9 -6 -9 -12 0 -4 7 -2 12 3 12 6 0 11 9 11 19 0 11 5 23 10 26
6 3 10 11 10 16 0 5 -10 1 -22 -11 -12 -11 -26 -20 -32 -20 -5 0 -3 6 6 13 9
6 19 26 22 42 4 17 3 25 -1 20 -15 -21 -51 -15 -57 9 -4 17 -13 22 -41 23 -29
1 -35 -3 -36 -20 -1 -20 -2 -20 -10 3 -8 24 -8 23 -5 -5z m89 -15 c3 -12 14
-20 26 -20 20 0 20 -1 4 -20 -19 -22 -38 -26 -49 -9 -4 8 0 9 15 4 27 -8 27 6
1 25 -11 8 -20 20 -20 27 0 20 17 15 23 -7z m122 -610 c3 -5 1 -10 -4 -10 -6
0 -11 5 -11 10 0 6 2 10 4 10 3 0 8 -4 11 -10z"/>
<path d="M5516 7014 c-4 -10 -1 -21 6 -27 10 -6 8 -7 -4 -4 -9 3 -19 1 -22 -6
-3 -7 -3 -2 0 11 3 12 1 22 -4 22 -5 0 -14 -10 -21 -22 l-11 -23 6 22 c4 17 2
22 -10 17 -8 -3 -17 -12 -20 -20 -7 -19 -36 -18 -36 1 0 8 -9 15 -20 15 -20 0
-20 -7 -20 -652 l0 -652 73 -70 c40 -39 84 -88 97 -108 33 -49 86 -78 144 -78
36 0 52 6 80 31 20 17 40 47 46 67 6 22 9 145 8 297 -1 143 -3 237 -5 209 l-4
-51 -54 1 c-30 1 -55 4 -55 9 0 4 -5 7 -11 7 -5 0 -8 -3 -6 -7 3 -5 1 -17 -4
-28 -7 -18 -8 -17 -8 7 -1 19 -6 26 -18 24 -9 -2 -19 -9 -21 -16 -3 -9 0 -10
9 -4 11 6 12 5 3 -7 -6 -8 -14 -21 -17 -29 -2 -8 -6 113 -7 270 -1 157 -5 400
-9 540 -5 217 -8 255 -21 255 -8 0 -21 4 -27 8 -8 5 -13 3 -13 -5 0 -11 -2
-10 -9 0 -6 11 -10 10 -15 -4z m-129 -106 c-3 -8 -6 -5 -6 6 -1 11 2 17 5 13
3 -3 4 -12 1 -19z"/>
<path d="M4910 7000 c0 -5 5 -10 10 -10 6 0 10 5 10 10 0 6 -4 10 -10 10 -5 0
-10 -4 -10 -10z"/>
<path d="M2040 6029 c0 -17 56 -73 87 -85 34 -15 90 -18 117 -8 10 4 16 18 16
38 0 29 -2 31 -38 31 -20 0 -44 3 -53 7 -26 12 -129 26 -129 17z"/>
<path d="M3447 5953 c-4 -3 -7 -11 -7 -17 0 -6 5 -5 12 2 6 6 9 14 7 17 -3 3
-9 2 -12 -2z"/>
<path d="M8080 5946 c31 -19 86 -19 125 -1 29 14 28 15 -25 8 -63 -7 -66 -7
-100 2 l-25 6 25 -15z"/>
<path d="M3481 5936 c-16 -19 -11 -29 8 -17 7 5 12 14 9 21 -3 9 -8 7 -17 -4z"/>
<path d="M3291 5884 c-1 -6 5 -17 12 -23 10 -8 14 -7 14 4 0 8 -4 12 -8 9 -4
-2 -10 2 -12 8 -4 8 -6 9 -6 2z"/>
<path d="M6948 5823 c7 -3 16 -2 19 1 4 3 -2 6 -13 5 -11 0 -14 -3 -6 -6z"/>
<path d="M4999 5549 c-13 -11 -18 -17 -10 -13 9 5 12 3 7 -5 -4 -6 -11 -9 -15
-7 -10 7 -55 -41 -74 -79 -16 -33 -37 -123 -37 -160 0 -46 40 -131 82 -174 22
-24 66 -55 96 -69 47 -21 64 -24 131 -20 90 6 141 28 195 88 40 45 60 86 52
107 -3 8 -1 11 4 8 6 -3 10 4 11 17 0 13 3 47 5 76 3 44 1 52 -14 52 -13 0
-14 -2 -3 -9 9 -6 11 -18 7 -35 -6 -24 -26 -37 -26 -17 0 5 -12 12 -27 16
l-28 7 25 14 25 14 -30 -6 c-16 -4 -40 -11 -53 -15 -31 -12 -28 -13 -42 20 -6
16 -25 42 -41 57 -26 25 -38 29 -82 28 -68 -2 -87 -6 -81 -15 2 -4 -1 -11 -7
-14 -6 -4 -20 -21 -31 -39 -11 -17 -17 -22 -13 -11 16 43 17 55 6 55 -18 0
-13 27 7 35 16 6 16 7 0 19 -23 17 -33 63 -18 81 18 22 6 18 -21 -6z m16 -79
c3 -5 2 -10 -4 -10 -5 0 -13 5 -16 10 -3 6 -2 10 4 10 5 0 13 -4 16 -10z m-10
-38 c-3 -3 -11 0 -18 7 -9 10 -8 11 6 5 10 -3 15 -9 12 -12z m10 -22 c3 -5 1
-10 -4 -10 -6 0 -11 5 -11 10 0 6 2 10 4 10 3 0 8 -4 11 -10z m305 -100 c0 -5
-4 -10 -10 -10 -5 0 -10 5 -10 10 0 6 5 10 10 10 6 0 10 -4 10 -10z m100 -41
c0 -6 -4 -7 -10 -4 -5 3 -10 11 -10 16 0 6 5 7 10 4 6 -3 10 -11 10 -16z"/>
<path d="M3583 2290 c-12 -5 -26 -18 -32 -29 -7 -13 -11 -137 -11 -354 0 -306
2 -337 18 -357 17 -21 23 -22 202 -20 203 1 207 2 216 62 5 28 2 40 -15 57
-19 19 -32 21 -135 21 -63 0 -117 4 -120 9 -3 4 -9 140 -12 301 l-7 292 -33
14 c-38 16 -41 16 -71 4z"/>
<path d="M4334 2286 c-21 -15 -50 -87 -195 -481 -90 -245 -89 -285 3 -285 49
0 72 23 94 94 l18 56 137 0 137 0 22 -57 c28 -72 51 -93 101 -93 54 0 80 27
70 72 -16 69 -242 652 -265 683 -17 24 -95 31 -122 11z m110 -359 c20 -53 36
-102 36 -107 0 -6 -38 -10 -90 -10 -49 0 -90 4 -90 8 0 7 58 185 75 231 9 22
27 -11 69 -122z"/>
<path d="M6296 2278 c-8 -13 -27 -58 -42 -100 -30 -84 -27 -100 22 -112 32 -8
44 1 94 76 60 90 51 133 -32 153 -21 5 -30 2 -42 -17z"/>
<path d="M4871 2264 c-12 -15 -21 -34 -21 -44 0 -10 9 -29 21 -44 l20 -26 151
0 c116 0 149 -3 145 -12 -3 -7 -80 -125 -171 -262 -239 -359 -244 -346 132
-346 249 0 263 1 282 20 11 11 20 33 20 50 0 17 -9 39 -20 50 -19 19 -33 20
-200 20 -99 0 -180 3 -180 7 0 4 8 16 19 27 31 34 323 478 335 508 9 23 7 31
-14 53 l-23 25 -238 0 -238 0 -20 -26z"/>
<path d="M5616 2277 c-18 -13 -19 -35 -22 -348 -3 -184 -1 -347 4 -364 11 -39
69 -57 110 -34 26 14 27 18 30 122 l3 107 57 0 58 0 70 -112 c63 -102 74 -114
107 -122 48 -12 91 2 95 31 2 12 -22 67 -57 129 l-61 107 45 41 c55 51 75 98
75 174 0 114 -55 208 -148 253 -41 21 -64 24 -197 27 -118 3 -154 1 -169 -11z
m301 -157 c54 -33 78 -102 52 -153 -24 -47 -49 -57 -141 -57 l-88 0 0 108 c0
60 3 112 7 115 3 4 36 7 72 7 48 0 75 -5 98 -20z"/>
<path d="M6656 2276 c-87 -33 -145 -107 -154 -197 -7 -72 5 -116 44 -159 34
-38 58 -49 218 -105 53 -19 86 -46 86 -71 0 -8 -13 -29 -29 -45 -41 -41 -111
-41 -200 1 -73 35 -77 34 -111 -41 l-24 -51 29 -24 c85 -69 253 -91 350 -46
83 38 125 92 139 178 21 121 -54 203 -238 264 -115 38 -151 99 -83 140 43 27
99 25 172 -5 33 -14 61 -25 62 -25 1 0 16 27 33 61 36 71 34 76 -43 110 -66
28 -194 36 -251 15z"/>
</g>
</svg>
